<svg width="18" height="15" fill="none" xmlns="http://www.w3.org/2000/svg"><path d="M1 1.72v4.335h4.364M17 13.28V8.944h-4.363" stroke="#fff" stroke-width="1.5" stroke-linecap="round" stroke-linejoin="round"/><path d="M15.175 5.333a6.5 6.5 0 00-1.823-2.69 6.588 6.588 0 00-6.167-1.386 6.555 6.555 0 00-2.81 1.648L1 6.055m16 2.89l-3.374 3.15a6.556 6.556 0 01-2.811 1.649 6.589 6.589 0 01-3.264.096 6.562 6.562 0 01-2.903-1.482 6.5 6.5 0 01-1.823-2.69" stroke="#fff" stroke-width="1.5" stroke-linecap="round" stroke-linejoin="round"/></svg>