<svg width="12" height="16" fill="none" xmlns="http://www.w3.org/2000/svg"><path d="M7.333 0h-6C.597 0 0 .597 0 1.333v13.333c0 .736.597 1.333 1.333 1.333l9.334.001c.735 0 1.333-.597 1.333-1.333v-10L7.333 0zM8 2.552L9.448 4H8V2.552zm2.667 12.114H1.333V1.333h5.334V4c0 .736.597 1.333 1.333 1.333h2.667v9.333z" fill="#fff"/><path d="M9.334 12h-4v1.333h4V12zm0-2.667h-4v1.334h4V9.333zm0-2.666h-4V8h4V6.667zM4 12H2.665v1.333h1.333V12zm0-2.667H2.665v1.334h1.333V9.333zm0-2.666H2.665V8h1.333V6.667z" fill="#fff"/></svg>