<svg width="16" height="16" fill="none" xmlns="http://www.w3.org/2000/svg"><path d="M16 8.18c0-.65-.055-1.137-.165-1.643H8.166V9.5h4.498c-.092.74-.572 1.842-1.678 2.6l-.018.109 2.415 1.842.166.018C15.116 12.659 16 10.618 16 8.18z" fill="#4285F4"/><path d="M8.165 16c2.212 0 4.056-.704 5.401-1.932l-2.58-1.969c-.683.47-1.623.795-2.84.795-2.156 0-4-1.39-4.645-3.323H3.41L.902 11.503l-.037.09A8.217 8.217 0 008.165 16z" fill="#34A853"/><path d="M3.52 9.571a5.053 5.053 0 01-.276-1.589c0-.56.093-1.084.258-1.59v-.108L.96 4.37l-.093.036A7.85 7.85 0 000 8c0 1.3.313 2.51.866 3.594L3.521 9.57z" fill="#FBBC05"/><path d="M8.165 3.088c1.53 0 2.563.65 3.152 1.192l2.305-2.203C12.202.795 10.359 0 8.165 0 4.976 0 2.211 1.788.865 4.406l2.636 2.005c.664-1.914 2.507-3.323 4.664-3.323z" fill="#EA4335"/></svg>