<svg width="176" height="35" fill="none" xmlns="http://www.w3.org/2000/svg"><g clip-path="url(#clip0)"><path d="M16.435 2.864C17.45 1.096 19.368 0 21.447 0h151.677c2.194 0 3.578 2.302 2.506 4.168l-16.065 27.968c-1.016 1.768-2.933 2.864-5.012 2.864H2.876C.682 35-.702 32.698.37 30.832L16.435 2.864z" fill="#fff"/><path fill-rule="evenodd" clip-rule="evenodd" d="M46.153 10.512H40.46c-.928 0-1.901.748-2.18 1.687l-3.076 10.603L32.128 12.2c-.269-.927-1.242-1.687-2.17-1.687h-5.704c-.928 0-1.465.76-1.197 1.687l3.076 10.603c.268.928 1.242 1.688 2.181 1.688h5.693c.604 0 1.04-.324 1.197-.805.156.48.593.805 1.196.805h5.693c.928 0 1.901-.75 2.17-1.688L47.339 12.2c.28-.927-.258-1.687-1.186-1.687z" fill="url(#paint0_linear)"/><path fill-rule="evenodd" clip-rule="evenodd" d="M32.832 10.511c-.458 0-.973.268-1.342.66.302.279.537.636.638 1.016l3.075 10.603 3.076-10.603c.123-.413.336-.748.671-1.039-.369-.357-.805-.648-1.241-.648h-4.877v.011z" fill="url(#paint1_linear)"/><path fill-rule="evenodd" clip-rule="evenodd" d="M43.323 22.813L39.599 12.21c-.112-.38-.325-.772-.638-1.05-.347.29-.559.658-.67 1.038l-3.088 10.604v.01L32.128 12.21a2.243 2.243 0 00-.65-1.027 2.284 2.284 0 00-.66 1.027l-3.724 10.604c-.29.927.291 1.687 1.287 1.687h5.625c.604 0 1.04-.313 1.197-.793.157.48.593.793 1.197.793h5.626c1.006-.011 1.577-.76 1.297-1.687z" fill="url(#paint2_linear)"/><path d="M63.658 12.674l-2.356 8.023-2.107-7.215c-.078-.282-.091-.429-.484-.429h-.733c-.38 0-.406.147-.484.429l-2.12 7.215-2.343-8.023-1.308.306 2.696 8.893c.078.27.13.429.51.429h.746c.38 0 .432-.16.51-.429l2.147-7.203 2.159 7.203c.078.282.118.429.51.429h.746c.393 0 .432-.147.51-.429l2.683-8.893-1.282-.306zm6.255 3.148c-.588-.306-1.151-.343-1.884-.343-.563 0-1.348.012-1.871.232-1.126.49-1.349 1.777-1.349 2.818v.796c0 1.041.21 2.205 1.192 2.695.55.27 1.269.355 1.962.355.76 0 1.833-.073 2.435-.183l-.092-.907c-.824.11-1.714.147-2.12.147-.38 0-1.243-.049-1.636-.355-.366-.294-.484-.943-.497-1.727h3.978c.615 0 .89-.282.89-.65v-.698c.013-1.237-.484-1.898-1.008-2.18zm-.222 2.609h-3.638c0-.833.144-1.409.523-1.74.354-.306 1.06-.306 1.414-.306.458 0 .929.037 1.23.27.327.27.471.76.471 1.506v.27zm6.897-2.683c-.641-.27-1.44-.27-2.015-.27-.34 0-1.021.062-1.597.148V12.6h-1.243v8.097c0 1.434 1.282 1.703 2.996 1.703 2.094 0 3.115-.465 3.115-3.332v-.637c.013-1.041-.117-2.205-1.256-2.683zm.013 3.406c0 1.96-.314 2.34-1.74 2.34-.629 0-1.14-.05-1.427-.209-.353-.196-.458-.514-.458-.992v-3.7a9.164 9.164 0 011.649-.159c1.583 0 1.963.27 1.963 1.911v.809h.013zm5.235 2.278c-.38 0-1.191 0-1.518-.294-.38-.33-.498-.919-.498-1.727v-.968c0-.808.105-1.396.498-1.727.327-.282 1.125-.294 1.518-.294.405 0 .981.024 1.806.147 0 0 .091-.882.091-.906a16.03 16.03 0 00-2.12-.184c-.536 0-1.295.049-1.845.318-.995.49-1.23 1.69-1.23 2.732v.784c0 1.041.235 2.242 1.23 2.732.55.27 1.309.318 1.845.318.563 0 1.65-.073 2.264-.183l-.091-.907c-.838.135-1.558.16-1.95.16zm7.512-5.733c-.524-.22-1.257-.22-1.82-.22-.562 0-1.295 0-1.819.22-1.125.49-1.256 1.789-1.256 2.83v.796c0 1.041.118 2.364 1.257 2.83.51.22 1.256.22 1.819.22.562 0 1.295 0 1.819-.22 1.125-.49 1.256-1.789 1.256-2.83v-.796c0-1.041-.131-2.34-1.256-2.83zm0 3.724c0 .809-.026 1.434-.406 1.764-.327.294-1.034.282-1.413.294-.393 0-1.087 0-1.414-.294-.366-.33-.393-.955-.393-1.764v-.98c0-.808.014-1.433.393-1.764.327-.281 1.034-.294 1.414-.294.38 0 1.086.012 1.413.294.366.331.406.956.406 1.764v.98zm9.488-3.944c-1.008 0-2.238.27-2.644.367-.458-.281-1.073-.367-1.767-.367-.824 0-1.871.135-2.434.232-.183.037-.602.135-.602.674v5.917h1.243V16.63c.445-.085 1.06-.196 1.584-.196 1.204 0 1.584.392 1.584 1.433v4.435h1.243V17.77c0-.454-.066-.821-.197-1.128.498-.098 1.165-.22 1.78-.22 1.191 0 1.584.392 1.584 1.433v4.435h1.243v-4.52c-.013-1.936-1.139-2.291-2.617-2.291zm5.208-.269v.024c0 .012-.013.012-.026.012s-.039.012-.066.012h-.222c-.026 0-.052-.012-.066-.012-.013 0-.026-.012-.039-.024-.013-.013-.013-.025-.026-.05l-.079-.232a.334.334 0 00-.117-.184c-.04-.037-.105-.049-.197-.049h-.104v.49c0 .025-.013.037-.04.049-.026.012-.078.012-.157.012-.078 0-.13 0-.157-.012-.026-.012-.039-.024-.039-.049v-1.25a.2.2 0 01.039-.122c.027-.037.079-.049.131-.049h.445c.105 0 .196.012.275.024a.596.596 0 01.209.074c.053.037.105.073.131.135.026.049.04.11.04.184a.34.34 0 01-.105.257.567.567 0 01-.275.135.468.468 0 01.17.097c.052.05.105.11.144.197l.092.22c.026.061.039.086.039.11zm-.484-.98c0-.025 0-.05-.013-.074-.014-.025-.027-.05-.04-.062a.121.121 0 00-.091-.036c-.039-.012-.079-.012-.131-.012h-.183v.416h.17c.105 0 .183-.024.222-.061.039-.062.066-.11.066-.172z" fill="#231F20"/><path d="M103.298 16.006c-.876 0-1.583-.662-1.583-1.483 0-.82.707-1.482 1.583-1.482.877 0 1.584.662 1.584 1.482 0 .821-.707 1.483-1.584 1.483zm0-2.646c-.68 0-1.243.526-1.243 1.163s.563 1.164 1.243 1.164c.681 0 1.244-.527 1.244-1.164 0-.637-.55-1.163-1.244-1.163z" fill="#212121"/><path d="M116.376 9.1l-8.62 16.8h1.437l8.62-16.8h-1.437z" fill="#B6CAD1"/><path d="M129.054 17.815v3.033c-.553 1.043-1.758 1.565-3.581 1.598-2.571-.13-3.938-1.533-4.069-4.207.131-2.674 1.433-4.109 3.907-4.239 1.888.033 3.124.75 3.711 2.185l-1.205.424c-.391-1.044-1.237-1.566-2.506-1.566-1.596.164-2.442 1.207-2.605 3.163.098 1.99 1.009 3.066 2.735 3.196 1.139-.032 1.953-.359 2.441-1.01v-1.599h-2.669V17.75h3.841v.065zm2.31 1.435v3.033h-1.204v-5.87h1.204v1.109c.294-.816.814-1.24 1.563-1.272.358 0 .716.098 1.074.326l-.423 1.076c-.228-.196-.488-.293-.846-.293-.879.065-1.335.717-1.368 1.891zm5.731-2.935c1.855.066 2.832 1.109 2.897 3.098-.065 1.957-1.042 2.967-2.995 3.033-1.855-.098-2.832-1.109-2.962-3 .13-2.022 1.139-3.066 3.06-3.13zm-.033 5.25c1.107-.032 1.693-.75 1.726-2.152-.065-1.37-.619-2.087-1.726-2.152-1.139.033-1.725.75-1.757 2.152.032 1.402.618 2.12 1.757 2.152zm9.148.718h-1.205v-1.011c-.423.75-1.074 1.141-1.953 1.141-1.465 0-2.181-.783-2.181-2.315v-3.685h1.205V20c0 1.043.455 1.565 1.399 1.565.944-.065 1.465-.652 1.563-1.728v-3.424h1.204v5.87h-.032zm2.441-.783v3h-1.237v-8.087h1.237v1.01c.358-.75 1.009-1.108 1.986-1.108 1.53.066 2.311 1.076 2.376 3.033-.032 2.054-.846 3.098-2.441 3.098-.847-.033-1.498-.326-1.921-.946zm-.033-2.478v.685c.033 1.206.554 1.826 1.596 1.89 1.074 0 1.594-.716 1.594-2.184-.032-1.37-.585-2.087-1.627-2.12-.977.033-1.497.62-1.563 1.729z" fill="#00B9FF"/></g><defs><linearGradient id="paint0_linear" x1="35.206" y1="20.678" x2="35.206" y2="9.777" gradientUnits="userSpaceOnUse"><stop stop-color="#C6E9FA"/><stop offset="1" stop-color="#00A0E3"/></linearGradient><linearGradient id="paint1_linear" x1="35.217" y1="19.395" x2="35.217" y2="10.204" gradientUnits="userSpaceOnUse"><stop stop-color="#FFF100"/><stop offset="1" stop-color="#F48120"/></linearGradient><linearGradient id="paint2_linear" x1="35.206" y1="24.525" x2="35.206" y2="14.051" gradientUnits="userSpaceOnUse"><stop stop-color="#D6DE23"/><stop offset="1" stop-color="#00974A"/></linearGradient><clipPath id="clip0"><path fill="#fff" d="M0 0h176v35H0z"/></clipPath></defs></svg>