<svg width="16" height="18" fill="none" xmlns="http://www.w3.org/2000/svg"><path d="M12.665 5.8C13.954 5.8 15 4.725 15 3.4S13.954 1 12.665 1c-1.288 0-2.333 1.075-2.333 2.4s1.045 2.4 2.333 2.4zm-9.332 5.6c1.289 0 2.334-1.075 2.334-2.4 0-1.326-1.045-2.4-2.334-2.4C2.045 6.6 1 7.674 1 9c0 1.325 1.045 2.4 2.333 2.4zm9.332 5.6C13.954 17 15 15.925 15 14.6s-1.045-2.4-2.334-2.4c-1.288 0-2.333 1.075-2.333 2.4s1.045 2.4 2.333 2.4zm-7.317-6.792l5.312 3.184m-.008-8.784L5.348 7.792" stroke="#AFB6BE" stroke-width="1.5" stroke-linecap="round" stroke-linejoin="round"/></svg>