<svg width="16" height="16" viewBox="0 0 16 16" fill="none" xmlns="http://www.w3.org/2000/svg">
<path d="M15.5121 0.936844H12.3147V0.471645C12.3147 0.211218 12.0962 0 11.8267 0C11.5573 0 11.3388 0.211218 11.3388 0.471645V0.936844H8.48797V0.471645C8.48797 0.211218 8.26944 0 8 0C7.73056 0 7.51203 0.211218 7.51203 0.471645V0.936844H4.78242V0.471645C4.78242 0.211218 4.56389 0 4.29445 0C4.02501 0 3.80648 0.211218 3.80648 0.471645V0.936844H0.487969C0.218529 0.936844 0 1.14806 0 1.40849V12.0655C0 12.3259 0.218529 12.5371 0.487969 12.5371H3.48296C3.96287 14.5191 5.80528 16 8 16C10.1947 16 12.0371 14.519 12.517 12.5371H15.512C15.7815 12.5371 16 12.3259 16 12.0655V1.40849C16.0001 1.14806 15.7816 0.936844 15.5121 0.936844ZM3.80648 1.88013V2.30634C3.80648 2.56677 4.02501 2.77799 4.29445 2.77799C4.56389 2.77799 4.78242 2.56677 4.78242 2.30634V1.88013H7.51203V2.30634C7.51203 2.56677 7.73056 2.77799 8 2.77799C8.26944 2.77799 8.48797 2.56677 8.48797 2.30634V1.88013H11.3388V2.30634C11.3388 2.56677 11.5573 2.77799 11.8267 2.77799C12.0962 2.77799 12.3147 2.56677 12.3147 2.30634V1.88013H15.0241V3.80885H0.975937V1.88013H3.80648ZM8 15.0567C5.97965 15.0567 4.33593 13.468 4.33593 11.5152C4.33593 9.56244 5.97965 7.97371 8 7.97371C10.0204 7.97371 11.6641 9.56236 11.6641 11.5152C11.6641 13.4681 10.0204 15.0567 8 15.0567ZM12.638 11.5938C12.6385 11.5676 12.64 11.5415 12.64 11.5152C12.64 9.0423 10.5585 7.03042 8 7.03042C5.4415 7.03042 3.35999 9.0423 3.35999 11.5152C3.35999 11.5415 3.36162 11.5676 3.36202 11.5938H0.975856V4.75221H15.0241V11.5938H12.638Z" fill="#8A979F"/>
<path d="M8.48765 11.6342V9.3525C8.48765 9.09208 8.26912 8.88086 7.99969 8.88086C7.73025 8.88086 7.51172 9.09208 7.51172 9.3525V11.8296C7.51172 11.9546 7.56312 12.0746 7.65461 12.1631L8.77612 13.2472C8.87144 13.3392 8.99628 13.3853 9.1212 13.3853C9.24603 13.3853 9.37095 13.3392 9.46627 13.2472C9.65682 13.063 9.65682 12.7644 9.46627 12.5802L8.48765 11.6342Z" fill="#8A979F"/>
</svg>
