<svg width="14" height="16" viewBox="0 0 14 16" fill="none" xmlns="http://www.w3.org/2000/svg">
<path d="M12.2937 4.48065L12.9301 3.84619L13.1193 4.03365C13.2951 4.2086 13.5799 4.2086 13.7538 4.03365C13.9305 3.85965 13.9305 3.57606 13.7538 3.40111L12.8016 2.4523C12.6259 2.27734 12.341 2.27734 12.1662 2.4523C11.9905 2.62821 11.9905 2.91084 12.1662 3.0858L12.3767 3.29344L11.751 3.91637C10.6608 2.91372 9.2519 2.25234 7.69237 2.0995V1.5179H8.14526C8.56629 1.5179 8.90716 1.1776 8.90716 0.759433C8.90716 0.340303 8.56532 0 8.14526 0H5.8586C5.43758 0 5.09574 0.340303 5.09574 0.759433C5.09574 1.17856 5.43758 1.5179 5.8586 1.5179H6.36074V2.09661H6.33274C4.68244 2.2533 3.1992 2.97813 2.08387 4.07498L1.69472 4.49315C0.641192 5.71305 0 7.29536 0 9.03148C0 12.8796 3.1345 16 7 16C10.8674 16 14 12.8796 14 9.03148C14.001 7.28959 13.354 5.70151 12.2937 4.48065ZM6.99131 14.808C3.77956 14.808 1.17616 12.2163 1.17616 9.01899C1.17616 5.82168 3.78052 3.22999 6.99131 3.22999C10.2021 3.22999 12.8065 5.82168 12.8065 9.01899C12.8065 12.2163 10.2021 14.808 6.99131 14.808Z" fill="#8A979F"/>
<path d="M7.45159 8.50073V4.85257L7.02863 4.17773L6.54774 4.85257V8.50073C6.28411 8.6555 6.10547 8.93813 6.10547 9.26497C6.10547 9.7562 6.50621 10.1542 6.9987 10.1542C7.49118 10.1542 7.89289 9.7562 7.89289 9.26497C7.89385 8.93813 7.71617 8.6555 7.45159 8.50073Z" fill="#8A979F"/>
</svg>
