<svg width="16" height="16" viewBox="0 0 16 16" fill="none" xmlns="http://www.w3.org/2000/svg">
<path d="M13.1859 0.973787V0H12.248V0.973787H3.75205V0H2.81408V0.973787H0V16H16V0.973787H13.1859ZM2.81408 1.94748V2.92126H3.75205V1.94748H12.248V2.92126H13.1859V1.94748H15.062V3.89502H0.937965V1.94748H2.81408ZM0.937965 15.0263V4.86871H15.062V15.0263H0.937965Z" fill="#8A979F"/>
<path d="M4.13765 6.16711H2.48242V7.88539H4.13765V6.16711Z" fill="#8A979F"/>
<path d="M7.26366 6.16711H5.6084V7.88539H7.26366V6.16711Z" fill="#8A979F"/>
<path d="M10.3906 6.16711H8.73535V7.88539H10.3906V6.16711Z" fill="#8A979F"/>
<path d="M13.5176 6.16711H11.8623V7.88539H13.5176V6.16711Z" fill="#8A979F"/>
<path d="M4.13765 9.08838H2.48242V10.8067H4.13765V9.08838Z" fill="#8A979F"/>
<path d="M7.26366 9.08838H5.6084V10.8067H7.26366V9.08838Z" fill="#8A979F"/>
<path d="M10.3906 9.08838H8.73535V10.8067H10.3906V9.08838Z" fill="#8A979F"/>
<path d="M13.5176 9.08838H11.8623V10.8067H13.5176V9.08838Z" fill="#8A979F"/>
<path d="M4.13765 12.0096H2.48242V13.7279H4.13765V12.0096Z" fill="#8A979F"/>
<path d="M7.26366 12.0096H5.6084V13.7279H7.26366V12.0096Z" fill="#8A979F"/>
<path d="M10.3906 12.0096H8.73535V13.7279H10.3906V12.0096Z" fill="#8A979F"/>
<path d="M13.5176 12.0096H11.8623V13.7279H13.5176V12.0096Z" fill="#8A979F"/>
</svg>
