<svg width="34" height="20" fill="none" xmlns="http://www.w3.org/2000/svg"><path fill-rule="evenodd" clip-rule="evenodd" d="M32.246.017h-7.924c-1.293 0-2.647 1.07-3.036 2.41l-4.282 15.148-4.281-15.148c-.374-1.325-1.728-2.41-3.02-2.41h-7.94C.47.017-.278 1.102.095 2.427l4.282 15.148c.373 1.325 1.728 2.41 3.036 2.41h7.924c.841 0 1.448-.463 1.666-1.15.218.687.825 1.15 1.666 1.15h7.925c1.292 0 2.647-1.07 3.02-2.41l4.282-15.148c.389-1.325-.358-2.41-1.65-2.41z" fill="url(#paint0_linear)"/><path fill-rule="evenodd" clip-rule="evenodd" d="M13.704.016c-.639 0-1.355.383-1.869.942.42.399.748.91.888 1.452l4.281 15.148L21.286 2.41c.171-.59.467-1.07.934-1.484C21.706.415 21.099 0 20.492 0h-6.788v.016z" fill="url(#paint1_linear)"/><path fill-rule="evenodd" clip-rule="evenodd" d="M28.307 17.59L23.123 2.442c-.156-.543-.452-1.101-.888-1.5a3.037 3.037 0 00-.934 1.484l-4.297 15.148v.016L12.723 2.442A3.213 3.213 0 0011.82.974a3.246 3.246 0 00-.919 1.468L5.717 17.59C5.312 18.915 6.12 20 7.507 20h7.831c.841 0 1.448-.447 1.666-1.133.218.686.825 1.133 1.666 1.133h7.831c1.402-.016 2.196-1.085 1.806-2.41z" fill="url(#paint2_linear)"/><defs><linearGradient id="paint0_linear" x1="17.008" y1="14.54" x2="17.008" y2="-1.034" gradientUnits="userSpaceOnUse"><stop stop-color="#C6E9FA"/><stop offset="1" stop-color="#00A0E3"/></linearGradient><linearGradient id="paint1_linear" x1="17.023" y1="12.707" x2="17.023" y2="-.424" gradientUnits="userSpaceOnUse"><stop stop-color="#FFF100"/><stop offset="1" stop-color="#F48120"/></linearGradient><linearGradient id="paint2_linear" x1="17.008" y1="20.035" x2="17.008" y2="5.073" gradientUnits="userSpaceOnUse"><stop stop-color="#D6DE23"/><stop offset="1" stop-color="#00974A"/></linearGradient></defs></svg>